<?xml version="1.0"?>
<svg version="1.1" xmlns="http://www.w3.org/2000/svg" width="200px" height="40px" style=""><path fill="#c75232" d="M50.833984375,31.40234375q0-0.478515625,0.328125-0.6083984375t0.7109375-0.1298828125q0.669921875,0,1.134765625,0.6015625t0.8818359375,1.3193359375t0.8271484375,1.3193359375t0.970703125,0.6015625q0.423828125,0,0.7724609375-0.2119140625t0.6015625-0.533203125t0.3896484375-0.724609375t0.13671875-0.7998046875q0-1.0390625-0.4169921875-2.146484375t-1.06640625-2.283203125t-1.3740234375-2.40625t-1.3671875-2.501953125t-1.06640625-2.5908203125t-0.423828125-2.6591796875q0-2.009765625,1.203125-3.1171875t3.171875-1.107421875q0.669921875,0,1.353515625,0.19140625t1.2578125,0.57421875t0.9365234375,0.943359375t0.3623046875,1.3125q0,0.24609375-0.3623046875,0.3212890625t-0.5263671875,0.0751953125q-0.24609375,0-0.533203125-0.0615234375t-0.369140625-0.3349609375t-0.232421875-0.62890625t-0.3759765625-0.6630859375t-0.533203125-0.533203125t-0.6767578125-0.2255859375q-0.615234375,0-1.0458984375,0.2529296875t-0.697265625,0.6767578125t-0.396484375,0.9501953125t-0.1298828125,1.0869140625q0,1.3125,0.451171875,2.6455078125t1.12109375,2.65234375t1.4560546875,2.6044921875t1.4560546875,2.501953125t1.12109375,2.37890625t0.451171875,2.201171875q0,0.9296875-0.4375,1.572265625t-1.107421875,1.0458984375t-1.4833984375,0.587890625t-1.5927734375,0.1845703125q-0.833984375,0-1.708984375-0.3349609375t-1.572265625-0.9228515625t-1.1484375-1.3740234375t-0.451171875-1.7021484375z M63.13416015625,28.900390625q0-0.9296875,0.2529296875-1.791015625t0.7587890625-1.5380859375t1.2646484375-1.080078125t1.7568359375-0.4033203125q0.615234375,0,1.3603515625,0.1845703125t1.4013671875,0.546875t1.09375,0.9228515625t0.4375,1.28515625q0,0.341796875-0.1162109375,0.51953125t-0.4716796875,0.177734375l-0.150390625-0.02734375q0.396484375,1.06640625,0.68359375,2.1875t0.560546875,2.2421875q0.109375,0.21875,0.1640625,0.3896484375t0.0546875,0.3349609375q0,0.21875-0.123046875,0.3623046875t-0.3212890625,0.2119140625t-0.41015625,0.095703125t-0.3759765625,0.02734375q-0.587890625,0-0.8818359375-0.205078125t-0.423828125-0.560546875t-0.1572265625-0.7998046875t-0.109375-0.8955078125q-0.1640625,0.533203125-0.4306640625,1.0390625t-0.62890625,0.9091796875t-0.8544921875,0.642578125t-1.107421875,0.2392578125q-0.90234375,0-1.517578125-0.51953125t-0.9912109375-1.2783203125t-0.546875-1.6201171875t-0.1708984375-1.599609375z M65.07556640625,28.708984375q0,0.505859375,0.068359375,1.06640625t0.2255859375,1.107421875t0.4033203125,1.0322265625t0.615234375,0.8544921875q0.669921875-0.724609375,0.9912109375-1.763671875t0.57421875-2.0029296875t0.57421875-1.654296875t0.9912109375-0.6904296875q0.423828125,0,0.7109375,0.150390625q-0.13671875-0.341796875-0.451171875-0.6630859375t-0.7041015625-0.587890625t-0.806640625-0.4375t-0.7861328125-0.1708984375q-0.109375,0-0.2529296875,0.0341796875t-0.2255859375,0.0068359375q-0.560546875,0.1640625-0.9228515625,0.5673828125t-0.587890625,0.9501953125t-0.3212890625,1.12109375t-0.095703125,1.080078125z M74.9831640625,28.900390625q0-0.9296875,0.2529296875-1.791015625t0.7587890625-1.5380859375t1.2646484375-1.080078125t1.7568359375-0.4033203125q0.615234375,0,1.3603515625,0.1845703125t1.4013671875,0.546875t1.09375,0.9228515625t0.4375,1.28515625q0,0.341796875-0.1162109375,0.51953125t-0.4716796875,0.177734375l-0.150390625-0.02734375q0.396484375,1.06640625,0.68359375,2.1875t0.560546875,2.2421875q0.109375,0.21875,0.1640625,0.3896484375t0.0546875,0.3349609375q0,0.21875-0.123046875,0.3623046875t-0.3212890625,0.2119140625t-0.41015625,0.095703125t-0.3759765625,0.02734375q-0.587890625,0-0.8818359375-0.205078125t-0.423828125-0.560546875t-0.1572265625-0.7998046875t-0.109375-0.8955078125q-0.1640625,0.533203125-0.4306640625,1.0390625t-0.62890625,0.9091796875t-0.8544921875,0.642578125t-1.107421875,0.2392578125q-0.90234375,0-1.517578125-0.51953125t-0.9912109375-1.2783203125t-0.546875-1.6201171875t-0.1708984375-1.599609375z M76.9245703125,28.708984375q0,0.505859375,0.068359375,1.06640625t0.2255859375,1.107421875t0.4033203125,1.0322265625t0.615234375,0.8544921875q0.669921875-0.724609375,0.9912109375-1.763671875t0.57421875-2.0029296875t0.57421875-1.654296875t0.9912109375-0.6904296875q0.423828125,0,0.7109375,0.150390625q-0.13671875-0.341796875-0.451171875-0.6630859375t-0.7041015625-0.587890625t-0.806640625-0.4375t-0.7861328125-0.1708984375q-0.109375,0-0.2529296875,0.0341796875t-0.2255859375,0.0068359375q-0.560546875,0.1640625-0.9228515625,0.5673828125t-0.587890625,0.9501953125t-0.3212890625,1.12109375t-0.095703125,1.080078125z M86.83216796875,28.736328125q0-1.06640625,0.2255859375-1.9345703125t0.7177734375-1.4697265625t1.2919921875-0.9365234375t1.9482421875-0.3349609375q0.642578125,0,1.3125,0.1708984375t1.1484375,0.6357421875q0-0.2734375,0.0546875-1.1279296875t0.13671875-1.9892578125t0.1708984375-2.37890625t0.1572265625-2.310546875t0.123046875-1.791015625t0.08203125-0.8203125q0.13671875-0.396484375,0.505859375-0.4716796875t0.697265625-0.0751953125q0.861328125,0,1.0595703125,0.2734375t0.1982421875,1.09375q0,2.994140625-0.2666015625,5.9609375t-0.2666015625,5.9609375q0,1.927734375,0.0751953125,3.8759765625t0.5400390625,3.8349609375l0.150390625,0.13671875l0.08203125,0.24609375l-0.205078125,0.314453125q-0.51953125,0.328125-1.203125,0.328125l-0.0546875,0q-0.697265625,0-1.28515625-0.328125q-0.21875-0.13671875-0.3623046875-0.8134765625t-0.2255859375-1.490234375t-0.123046875-1.5654296875t-0.068359375-1.06640625q-0.478515625,1.09375-1.3056640625,1.8798828125t-2.0849609375,0.7861328125q-0.984375,0-1.61328125-0.423828125t-0.9775390625-1.080078125t-0.4921875-1.4697265625t-0.1435546875-1.6201171875z M88.48646484375,28.818359375q0,0.314453125,0.0751953125,0.9296875t0.2392578125,1.23046875t0.4580078125,1.09375t0.7724609375,0.478515625q0.642578125-0.314453125,1.162109375-1.0458984375t0.8955078125-1.61328125t0.587890625-1.763671875t0.2119140625-1.5244140625q0-0.806640625-0.587890625-1.33984375t-1.408203125-0.533203125q-0.24609375,0-0.4990234375,0.095703125t-0.4716796875,0.21875q-0.505859375,0.478515625-0.7861328125,0.8681640625t-0.423828125,0.806640625t-0.1845703125,0.9228515625t-0.041015625,1.17578125z"/><path fill="#" d=""/></svg>
